<?xml version="1.0" encoding="utf-8"?>
<!-- Svg Vector Icons : http://www.onlinewebfonts.com/icon -->
<!DOCTYPE svg PUBLIC "-//W3C//DTD SVG 1.1//EN" "http://www.w3.org/Graphics/SVG/1.1/DTD/svg11.dtd">
<svg version="1.1" xmlns="http://www.w3.org/2000/svg" xmlns:xlink="http://www.w3.org/1999/xlink" x="0px" y="0px" viewBox="0 0 1000 1000" enable-background="new 0 0 1000 1000" xml:space="preserve">
<metadata> Svg Vector Icons : http://www.onlinewebfonts.com/icon </metadata>
<g><g><g><path d="M204.5,990h591.1C902.9,990,990,902.9,990,795.6V204.4C990,97.1,902.9,10,795.5,10H204.5C97.1,10,10,97.1,10,204.4v591.1C10,902.9,97.1,990,204.5,990z M113.1,775.1l118.8-118.8c0.5-0.5,1.2-0.8,1.8-1.2l-27.5-27.6c-4.2-4.2-2.8-7,3.1-6.2L353,640.6c0.3-0.4,0.6-0.8,0.9-1.2c22.6-29.2,57.5-60.4,98.4-87.9c16-10.8,32.2-20.4,48-28.7l-11.4-20.1c-4.7-8.4-4.7-21.3,0-29.8l56.1-102c4.7-8.5,16.4-16.8,26.1-16.8h23.1l-0.2-47.5l-34.8-34.8c-6.8-6.8-6.8-17.9,0-24.8l34.4-34.4l0-11.7l-34.3-34.3c-6.8-6.8-6.8-17.9,0-24.8l33.9-33.9L593,92.9c-0.1-17.9,14.4-30.4,32.3-30.4c0,0,0.1,0,0.1,0c17.8,0,32.3,10.7,32.4,28.5l1.2,263.1h23.4c9.7,0,21.3,8.7,26.1,17.2l56.1,101.5c4.7,8.4,4.7,22.6,0,31.1l-56.1,97.4c-4.7,8.4-16.4,12.2-26.1,12.2H617c17.8-17.7,31.3-38.9,40-64.2c3.2-2,6.3-4.3,9.1-7.1c18.8-19.2,18.4-50.1-0.8-68.9c-5.9-5.7-12.9-9.5-20.2-11.6c-10.8-3.2-22.4-2.8-32.8,1.6c-5.8,2.4-11.2,6-15.8,10.8c-4.6,4.7-8.1,10.2-10.4,16c8.8-1.7,17.1-2.9,24.5-2.9c17.7,0,30.2,5.1,37,15.2c17.2,25.6-10.4,69.4-54.5,111c-11.2,10.5-23.4,20.9-36.2,30.9c-9.2,7.1-18.7,14-28.3,20.4c-19.4,13.1-39,24.3-57.9,33.8c-15.2,7.6-30,14-43.9,18.8c-14.5,5.1-28.1,8.7-40.2,10.4c-5.7,0.8-11.1,1.3-16.2,1.3c-13.6,0-24-3.1-31.3-9.1c-2.2-1.8-4.1-3.8-5.7-6.2c-4.3-6.3-5.8-14-4.9-22.8c-7.8,6.6-12.9,16.4-12.9,27.4c0,19.9,16.2,36.1,36.1,36.1c11.3,0,21.2-5.3,27.8-13.3c17.2-1.5,33.4-5.5,48.4-12.2l13.7,125.8c0.6,5.9-2.2,7.3-6.4,3.1l-27.4-27.6c-0.3,0.4-0.4,0.8-0.7,1.1L288.3,950.2c-4.2,4.2-11.1,4.2-15.3,0L113.1,790.4C108.9,786.2,108.9,779.3,113.1,775.1z"/><path d="M346.7,704.7c4.5,6.7,15.3,8.1,23.5,8.1c5.1,0,10.8-0.6,16.8-1.6c11.3-1.9,24.1-5.5,37.8-10.5c18.3-6.7,38.2-15.9,58.5-27.4c12-6.7,24.1-14,36.1-22.1c8.9-6,17.2-12,25.2-18.1c8.8-6.7,17-13.3,24.5-19.9c51.2-44.5,75.5-85.9,64.9-101.8c-4.5-6.7-15.3-8.1-23.5-8.1c-8.1,0-17.5,1.4-27.8,3.9c-0.2,12.9,4.6,25.9,14.5,35.7c2.4,2.3,4.9,4.3,7.6,6.1c-11.2,22.7-29.1,39.2-52,52.2c-1.9,1.1-3.5,2.3-4.9,3.6c-1-1.1-2.2-2.1-2.9-3.4l-36.7-64.6c-15.5,8.2-31.3,17.5-47,28c-36.6,24.6-68,52.1-89.6,78.2l36.8,5c5.9,0.8,11.3,6.3,11.9,12.2l2.5,23.4c-12.5,7.8-26.9,12.1-41.8,13.9c-6.5-9.3-17.3-15.3-29.5-15.3c-1.6,0-3.1,0.3-4.7,0.5c-3,8.4-3.3,15.2-1.1,20.1C346.2,703.5,346.3,704.2,346.7,704.7z"/></g></g><g></g><g></g><g></g><g></g><g></g><g></g><g></g><g></g><g></g><g></g><g></g><g></g><g></g><g></g><g></g></g>
</svg>